solid Probe_64_15Mhz (1)
facet normal 0.5203391403377181 7.968527585847858e-14 -0.853959705742961
  outer loop
    vertex -6.00897738962177 19.376177631462003 0.2991924340835684
    vertex -6.499999999998522 7.100000000001279 -3.6095570976613087e-13
    vertex -6.499999999998522 19.100000000002524 2.526689968362916e-12
  endloop
endfacet
facet normal 0.5203391403377181 7.968527585847858e-14 -0.853959705742961
  outer loop
    vertex -6.499999999998522 7.100000000001279 -3.6095570976613087e-13
    vertex -6.00897738962177 19.376177631462003 0.2991924340835684
    vertex -6.008977389623214 6.823822368539815 0.29919243408320745
  endloop
endfacet
facet normal 0.43293698419409676 1.4432489373791228e-15 -0.901424188557707
  outer loop
    vertex -6.00897738962177 19.376177631462003 0.2991924340835684
    vertex -5.490662936204444 6.594034713531872 0.5481290603413302
    vertex -6.008977389623214 6.823822368539815 0.29919243408320745
  endloop
endfacet
facet normal 0.43293698419409676 1.4432489373791228e-15 -0.901424188557707
  outer loop
    vertex -5.490662936204444 6.594034713531872 0.5481290603413302
    vertex -6.00897738962177 19.376177631462003 0.2991924340835684
    vertex -5.490662936204444 19.605965286469406 0.5481290603416912
  endloop
endfacet
facet normal -0.24619176281825741 -1.9468780607618096e-14 -0.969221138812211
  outer loop
    vertex -1.5498161864072244 19.787089902314086 0.7443473941728612
    vertex -2.1071135511555212 6.282240208244714 0.8859064410687622
    vertex -2.107113551156243 19.917759791756207 0.8859064410687622
  endloop
endfacet
facet normal -0.24619176281825741 -1.9468780607618096e-14 -0.969221138812211
  outer loop
    vertex -2.1071135511555212 6.282240208244714 0.8859064410687622
    vertex -1.5498161864072244 19.787089902314086 0.7443473941728612
    vertex -1.5498161864072244 6.412910097686834 0.7443473941732222
  endloop
endfacet
facet normal -0.3412522093268023 -3.8392285370355023e-14 -0.9399717706556812
  outer loop
    vertex -1.009337063792634 19.605965286469225 0.5481290603406084
    vertex -1.5498161864072244 6.412910097686834 0.7443473941732222
    vertex -1.5498161864072244 19.787089902314086 0.7443473941728612
  endloop
endfacet
facet normal -0.3412522093268023 -3.8392285370355023e-14 -0.9399717706556812
  outer loop
    vertex -1.5498161864072244 6.412910097686834 0.7443473941732222
    vertex -1.009337063792634 19.605965286469225 0.5481290603406084
    vertex -1.009337063792634 6.594034713532054 0.5481290603413302
  endloop
endfacet
facet normal 0.2461917628172278 2.5985526451547752e-14 -0.9692211388124725
  outer loop
    vertex -4.392886448842279 19.917759791755667 0.8859064410680403
    vertex -4.950183813589853 6.412910097687014 0.7443473941728612
    vertex -4.950183813590575 19.787089902314268 0.7443473941732222
  endloop
endfacet
facet normal 0.2461917628172278 2.5985526451547752e-14 -0.9692211388124725
  outer loop
    vertex -4.950183813589853 6.412910097687014 0.7443473941728612
    vertex -4.392886448842279 19.917759791755667 0.8859064410680403
    vertex -4.392886448841557 6.282240208245616 0.8859064410680403
  endloop
endfacet
facet normal 0.14869598393710198 7.827043247722404e-15 -0.9888829578676018
  outer loop
    vertex -3.824283635309467 19.996682366414987 0.9714058969490323
    vertex -4.392886448841557 6.282240208245616 0.8859064410680403
    vertex -4.392886448842279 19.917759791755667 0.8859064410680403
  endloop
endfacet
facet normal 0.14869598393710198 7.827043247722404e-15 -0.9888829578676018
  outer loop
    vertex -4.392886448841557 6.282240208245616 0.8859064410680403
    vertex -3.824283635309467 19.996682366414987 0.9714058969490323
    vertex -3.8242836353087455 6.203317633586295 0.9714058969490323
  endloop
endfacet
facet normal -0.14869598393700972 -3.890960203769015e-15 -0.9888829578676157
  outer loop
    vertex -2.107113551156243 19.917759791756207 0.8859064410687622
    vertex -2.6757163646890545 6.203317633585392 0.9714058969497542
    vertex -2.6757163646890545 19.99668236641553 0.9714058969497542
  endloop
endfacet
facet normal -0.14869598393700972 -3.890960203769015e-15 -0.9888829578676157
  outer loop
    vertex -2.6757163646890545 6.203317633585392 0.9714058969497542
    vertex -2.107113551156243 19.917759791756207 0.8859064410687622
    vertex -2.1071135511555212 6.282240208244714 0.8859064410687622
  endloop
endfacet
facet normal -0.5203391403405649 6.302206272536231e-14 -0.8539597057412263
  outer loop
    vertex 0.0 19.099999999999998 0.0
    vertex -0.4910226103753075 6.823822368539274 0.29919243408320745
    vertex -0.4910226103753075 19.376177631462365 0.2991924340842903
  endloop
endfacet
facet normal -0.5203391403405649 6.302206272536231e-14 -0.8539597057412263
  outer loop
    vertex -0.4910226103753075 6.823822368539274 0.29919243408320745
    vertex 0.0 19.099999999999998 0.0
    vertex 0.0 7.100000000001279 -7.219114195322617e-13
  endloop
endfacet
facet normal -0.4329369841933114 1.1579188831656156e-14 -0.901424188558084
  outer loop
    vertex -0.4910226103753075 19.376177631462365 0.2991924340842903
    vertex -1.009337063792634 6.594034713532054 0.5481290603413302
    vertex -1.009337063792634 19.605965286469225 0.5481290603406084
  endloop
endfacet
facet normal -0.4329369841933114 1.1579188831656156e-14 -0.901424188558084
  outer loop
    vertex -1.009337063792634 6.594034713532054 0.5481290603413302
    vertex -0.4910226103753075 19.376177631462365 0.2991924340842903
    vertex -0.4910226103753075 6.823822368539274 0.29919243408320745
  endloop
endfacet
facet normal 0.3412522093261718 3.517628061010933e-14 -0.9399717706559101
  outer loop
    vertex -4.950183813590575 19.787089902314268 0.7443473941732222
    vertex -5.490662936204444 6.594034713531872 0.5481290603413302
    vertex -5.490662936204444 19.605965286469406 0.5481290603416912
  endloop
endfacet
facet normal 0.3412522093261718 3.517628061010933e-14 -0.9399717706559101
  outer loop
    vertex -5.490662936204444 6.594034713531872 0.5481290603413302
    vertex -4.950183813590575 19.787089902314268 0.7443473941732222
    vertex -4.950183813589853 6.412910097687014 0.7443473941728612
  endloop
endfacet
facet normal 1.0 4.1393569581512836e-29 -8.746780324122041e-14
  outer loop
    vertex 0.0 7.100000000001279 -7.219114195322617e-13
    vertex 1.4438228390645235e-12 1.100000000001205 15.489281122049183
    vertex 1.4438228390645235e-12 1.100000000001205 6.499999999999974
  endloop
endfacet
facet normal 1.0 4.1393569581512836e-29 -8.746780324122041e-14
  outer loop
    vertex 1.4438228390645235e-12 1.100000000001205 15.489281122049183
    vertex 0.0 7.100000000001279 -7.219114195322617e-13
    vertex 1.4438228390645235e-12 25.10000000000116 15.489281122049183
  endloop
endfacet
facet normal 1.0 4.1393569581512836e-29 -8.746780324122041e-14
  outer loop
    vertex 1.4438228390645235e-12 25.10000000000116 15.489281122049183
    vertex 0.0 7.100000000001279 -7.219114195322617e-13
    vertex 0.0 19.099999999999998 0.0
  endloop
endfacet
facet normal 1.0 4.1393569581512836e-29 -8.746780324122041e-14
  outer loop
    vertex 1.4438228390645235e-12 25.10000000000116 15.489281122049183
    vertex 0.0 19.099999999999998 0.0
    vertex 1.4438228390645235e-12 25.10000000000116 6.499999999999974
  endloop
endfacet
facet normal 0.0 -1.0 0.0
  outer loop
    vertex -2.9911809548947415 1.100000000001205 9.534074173711025
    vertex -3.5088190451001706 1.100000000001205 9.534074173711025
    vertex -3.249999999997817 1.100000000001205 9.50000000000002
  endloop
endfacet
facet normal 0.0 -1.0 0.0
  outer loop
    vertex -3.5088190451001706 1.100000000001205 9.534074173711025
    vertex -2.9911809548947415 1.100000000001205 9.534074173711025
    vertex -2.749999999997209 1.100000000001205 9.633974596215765
  endloop
endfacet
facet normal 0.0 -1.0 0.0
  outer loop
    vertex -3.5088190451001706 1.100000000001205 9.534074173711025
    vertex -2.749999999997209 1.100000000001205 9.633974596215765
    vertex -3.749999999997703 1.100000000001205 9.633974596215765
  endloop
endfacet
facet normal 0.0 -1.0 0.0
  outer loop
    vertex -3.749999999997703 1.100000000001205 9.633974596215765
    vertex -2.749999999997209 1.100000000001205 9.633974596215765
    vertex -2.5428932188103204 1.100000000001205 9.792893218813377
  endloop
endfacet
facet normal 0.0 -1.0 0.0
  outer loop
    vertex -3.749999999997703 1.100000000001205 9.633974596215765
    vertex -2.5428932188103204 1.100000000001205 9.792893218813377
    vertex -3.95710678118387 1.100000000001205 9.792893218813377
  endloop
endfacet
facet normal 0.0 -1.0 0.0
  outer loop
    vertex -3.95710678118387 1.100000000001205 9.792893218813377
    vertex -2.5428932188103204 1.100000000001205 9.792893218813377
    vertex -2.3839745962130676 1.100000000001205 10.000000000000266
  endloop
endfacet
facet normal 0.0 -1.0 0.0
  outer loop
    vertex -3.95710678118387 1.100000000001205 9.792893218813377
    vertex -2.3839745962130676 1.100000000001205 10.000000000000266
    vertex -4.116025403781845 1.100000000001205 9.999999999999906
  endloop
endfacet
facet normal 0.0 -1.0 0.0
  outer loop
    vertex -4.116025403781845 1.100000000001205 9.999999999999906
    vertex -2.3839745962130676 1.100000000001205 10.000000000000266
    vertex -4.215925826286946 1.100000000001205 10.24118095489744
  endloop
endfacet
facet normal 0.0 -1.0 0.0
  outer loop
    vertex -4.215925826286946 1.100000000001205 10.24118095489744
    vertex -2.3839745962130676 1.100000000001205 10.000000000000266
    vertex -2.2840741737086887 1.100000000001205 10.24118095489744
  endloop
endfacet
facet normal 0.0 -1.0 0.0
  outer loop
    vertex -4.215925826286946 1.100000000001205 10.24118095489744
    vertex -2.2840741737086887 1.100000000001205 10.24118095489744
    vertex -2.2499999999973226 1.100000000001205 10.500000000000155
  endloop
endfacet
facet normal 0.0 -1.0 0.0
  outer loop
    vertex -4.215925826286946 1.100000000001205 10.24118095489744
    vertex -2.2499999999973226 1.100000000001205 10.500000000000155
    vertex -4.2499999999975895 1.100000000001205 10.500000000000155
  endloop
endfacet
facet normal 0.0 -1.0 0.0
  outer loop
    vertex -4.2499999999975895 1.100000000001205 10.500000000000155
    vertex -2.2499999999973226 1.100000000001205 10.500000000000155
    vertex -2.2840741737086887 1.100000000001205 10.758819045102868
  endloop
endfacet
facet normal 0.0 -1.0 0.0
  outer loop
    vertex -4.2499999999975895 1.100000000001205 10.500000000000155
    vertex -2.2840741737086887 1.100000000001205 10.758819045102868
    vertex -4.215925826286946 1.100000000001205 10.758819045102868
  endloop
endfacet
facet normal 0.0 -1.0 0.0
  outer loop
    vertex -4.215925826286946 1.100000000001205 10.758819045102868
    vertex -2.2840741737086887 1.100000000001205 10.758819045102868
    vertex -2.3839745962130676 1.100000000001205 11.0000000000004
  endloop
endfacet
facet normal 0.0 -1.0 0.0
  outer loop
    vertex -4.215925826286946 1.100000000001205 10.758819045102868
    vertex -2.3839745962130676 1.100000000001205 11.0000000000004
    vertex -4.116025403781845 1.100000000001205 11.000000000000039
  endloop
endfacet
facet normal 0.0 -1.0 0.0
  outer loop
    vertex -4.116025403781845 1.100000000001205 11.000000000000039
    vertex -2.3839745962130676 1.100000000001205 11.0000000000004
    vertex -3.95710678118387 1.100000000001205 11.207106781186928
  endloop
endfacet
facet normal 0.0 -1.0 0.0
  outer loop
    vertex -3.95710678118387 1.100000000001205 11.207106781186928
    vertex -2.3839745962130676 1.100000000001205 11.0000000000004
    vertex -2.5428932188103204 1.100000000001205 11.207106781186928
  endloop
endfacet
facet normal 0.0 -1.0 0.0
  outer loop
    vertex -3.95710678118387 1.100000000001205 11.207106781186928
    vertex -2.5428932188103204 1.100000000001205 11.207106781186928
    vertex -2.7499999999979305 1.100000000001205 11.36602540378454
  endloop
endfacet
facet normal 0.0 -1.0 0.0
  outer loop
    vertex -3.95710678118387 1.100000000001205 11.207106781186928
    vertex -2.7499999999979305 1.100000000001205 11.36602540378454
    vertex -3.749999999997703 1.100000000001205 11.36602540378454
  endloop
endfacet
facet normal 0.0 -1.0 0.0
  outer loop
    vertex -3.749999999997703 1.100000000001205 11.36602540378454
    vertex -2.7499999999979305 1.100000000001205 11.36602540378454
    vertex -2.9911809548947415 1.100000000001205 11.465925826289281
  endloop
endfacet
facet normal 0.0 -1.0 0.0
  outer loop
    vertex -3.749999999997703 1.100000000001205 11.36602540378454
    vertex -2.9911809548947415 1.100000000001205 11.465925826289281
    vertex -3.5088190451001706 1.100000000001205 11.465925826289281
  endloop
endfacet
facet normal 0.0 -1.0 0.0
  outer loop
    vertex -3.5088190451001706 1.100000000001205 11.465925826289281
    vertex -2.9911809548947415 1.100000000001205 11.465925826289281
    vertex -3.249999999997817 1.100000000001205 11.500000000000286
  endloop
endfacet
facet normal -3.9061963105446825e-15 0.7348034446274346 -0.6782801027331237
  outer loop
    vertex -6.499999999997078 25.10000000000116 6.499999999999974
    vertex -6.00897738962177 19.376177631462003 0.2991924340835684
    vertex -6.499999999998522 19.100000000002524 2.526689968362916e-12
  endloop
endfacet
facet normal -3.9061963105446825e-15 0.7348034446274346 -0.6782801027331237
  outer loop
    vertex -6.00897738962177 19.376177631462003 0.2991924340835684
    vertex -6.499999999997078 25.10000000000116 6.499999999999974
    vertex -5.490662936204444 19.605965286469406 0.5481290603416912
  endloop
endfacet
facet normal -3.9061963105446825e-15 0.7348034446274346 -0.6782801027331237
  outer loop
    vertex -5.490662936204444 19.605965286469406 0.5481290603416912
    vertex -6.499999999997078 25.10000000000116 6.499999999999974
    vertex -4.950183813590575 19.787089902314268 0.7443473941732222
  endloop
endfacet
facet normal -3.9061963105446825e-15 0.7348034446274346 -0.6782801027331237
  outer loop
    vertex -4.950183813590575 19.787089902314268 0.7443473941732222
    vertex -6.499999999997078 25.10000000000116 6.499999999999974
    vertex -4.392886448842279 19.917759791755667 0.8859064410680403
  endloop
endfacet
facet normal -3.9061963105446825e-15 0.7348034446274346 -0.6782801027331237
  outer loop
    vertex -4.392886448842279 19.917759791755667 0.8859064410680403
    vertex -6.499999999997078 25.10000000000116 6.499999999999974
    vertex -3.824283635309467 19.996682366414987 0.9714058969490323
  endloop
endfacet
facet normal -3.9061963105446825e-15 0.7348034446274346 -0.6782801027331237
  outer loop
    vertex -3.824283635309467 19.996682366414987 0.9714058969490323
    vertex -6.499999999997078 25.10000000000116 6.499999999999974
    vertex -3.249999999999261 20.02307692307645 0.999999999999413
  endloop
endfacet
facet normal -3.9061963105446825e-15 0.7348034446274346 -0.6782801027331237
  outer loop
    vertex -0.4910226103753075 19.376177631462365 0.2991924340842903
    vertex 1.4438228390645235e-12 25.10000000000116 6.499999999999974
    vertex 0.0 19.099999999999998 0.0
  endloop
endfacet
facet normal -3.9061963105446825e-15 0.7348034446274346 -0.6782801027331237
  outer loop
    vertex 1.4438228390645235e-12 25.10000000000116 6.499999999999974
    vertex -0.4910226103753075 19.376177631462365 0.2991924340842903
    vertex -1.009337063792634 19.605965286469225 0.5481290603406084
  endloop
endfacet
facet normal -3.9061963105446825e-15 0.7348034446274346 -0.6782801027331237
  outer loop
    vertex 1.4438228390645235e-12 25.10000000000116 6.499999999999974
    vertex -1.009337063792634 19.605965286469225 0.5481290603406084
    vertex -1.5498161864072244 19.787089902314086 0.7443473941728612
  endloop
endfacet
facet normal -3.9061963105446825e-15 0.7348034446274346 -0.6782801027331237
  outer loop
    vertex 1.4438228390645235e-12 25.10000000000116 6.499999999999974
    vertex -1.5498161864072244 19.787089902314086 0.7443473941728612
    vertex -2.107113551156243 19.917759791756207 0.8859064410687622
  endloop
endfacet
facet normal -3.9061963105446825e-15 0.7348034446274346 -0.6782801027331237
  outer loop
    vertex 1.4438228390645235e-12 25.10000000000116 6.499999999999974
    vertex -2.107113551156243 19.917759791756207 0.8859064410687622
    vertex -2.6757163646890545 19.99668236641553 0.9714058969497542
  endloop
endfacet
facet normal -3.9061963105446825e-15 0.7348034446274346 -0.6782801027331237
  outer loop
    vertex 1.4438228390645235e-12 25.10000000000116 6.499999999999974
    vertex -2.6757163646890545 19.99668236641553 0.9714058969497542
    vertex -3.249999999999261 20.02307692307645 0.999999999999413
  endloop
endfacet
facet normal -3.9061963105446825e-15 0.7348034446274346 -0.6782801027331237
  outer loop
    vertex 1.4438228390645235e-12 25.10000000000116 6.499999999999974
    vertex -3.249999999999261 20.02307692307645 0.999999999999413
    vertex -6.499999999997078 25.10000000000116 6.499999999999974
  endloop
endfacet
facet normal -0.0 -0.0 1.0
  outer loop
    vertex 1.4438228390645235e-12 1.100000000001205 15.489281122049183
    vertex -6.499999999997078 25.10000000000116 15.489281122049183
    vertex -6.499999999997078 1.100000000001205 15.489281122049183
  endloop
endfacet
facet normal -0.0 -0.0 1.0
  outer loop
    vertex -6.499999999997078 25.10000000000116 15.489281122049183
    vertex 1.4438228390645235e-12 1.100000000001205 15.489281122049183
    vertex 1.4438228390645235e-12 25.10000000000116 15.489281122049183
  endloop
endfacet
facet normal 0.0 -1.0 0.0
  outer loop
    vertex 1.4438228390645235e-12 1.100000000001205 6.499999999999974
    vertex -2.5428932188103204 1.100000000001205 9.792893218813377
    vertex -6.499999999997078 1.100000000001205 6.499999999999974
  endloop
endfacet
facet normal 0.0 -1.0 0.0
  outer loop
    vertex -2.5428932188103204 1.100000000001205 9.792893218813377
    vertex 1.4438228390645235e-12 1.100000000001205 6.499999999999974
    vertex -2.3839745962130676 1.100000000001205 10.000000000000266
  endloop
endfacet
facet normal 0.0 -1.0 0.0
  outer loop
    vertex -2.3839745962130676 1.100000000001205 10.000000000000266
    vertex 1.4438228390645235e-12 1.100000000001205 6.499999999999974
    vertex 1.4438228390645235e-12 1.100000000001205 15.489281122049183
  endloop
endfacet
facet normal 0.0 -1.0 0.0
  outer loop
    vertex -6.499999999997078 1.100000000001205 6.499999999999974
    vertex -2.5428932188103204 1.100000000001205 9.792893218813377
    vertex -2.749999999997209 1.100000000001205 9.633974596215765
  endloop
endfacet
facet normal 0.0 -1.0 0.0
  outer loop
    vertex -6.499999999997078 1.100000000001205 6.499999999999974
    vertex -2.749999999997209 1.100000000001205 9.633974596215765
    vertex -2.9911809548947415 1.100000000001205 9.534074173711025
  endloop
endfacet
facet normal 0.0 -1.0 0.0
  outer loop
    vertex -6.499999999997078 1.100000000001205 6.499999999999974
    vertex -2.9911809548947415 1.100000000001205 9.534074173711025
    vertex -3.249999999997817 1.100000000001205 9.50000000000002
  endloop
endfacet
facet normal 0.0 -1.0 0.0
  outer loop
    vertex -2.3839745962130676 1.100000000001205 10.000000000000266
    vertex 1.4438228390645235e-12 1.100000000001205 15.489281122049183
    vertex -2.2840741737086887 1.100000000001205 10.24118095489744
  endloop
endfacet
facet normal 0.0 -1.0 0.0
  outer loop
    vertex -2.2840741737086887 1.100000000001205 10.24118095489744
    vertex 1.4438228390645235e-12 1.100000000001205 15.489281122049183
    vertex -2.2499999999973226 1.100000000001205 10.500000000000155
  endloop
endfacet
facet normal 0.0 -1.0 0.0
  outer loop
    vertex -2.2499999999973226 1.100000000001205 10.500000000000155
    vertex 1.4438228390645235e-12 1.100000000001205 15.489281122049183
    vertex -2.2840741737086887 1.100000000001205 10.758819045102868
  endloop
endfacet
facet normal 0.0 -1.0 0.0
  outer loop
    vertex -2.2840741737086887 1.100000000001205 10.758819045102868
    vertex 1.4438228390645235e-12 1.100000000001205 15.489281122049183
    vertex -2.3839745962130676 1.100000000001205 11.0000000000004
  endloop
endfacet
facet normal 0.0 -1.0 0.0
  outer loop
    vertex -2.3839745962130676 1.100000000001205 11.0000000000004
    vertex 1.4438228390645235e-12 1.100000000001205 15.489281122049183
    vertex -2.5428932188103204 1.100000000001205 11.207106781186928
  endloop
endfacet
facet normal 0.0 -1.0 0.0
  outer loop
    vertex -2.5428932188103204 1.100000000001205 11.207106781186928
    vertex 1.4438228390645235e-12 1.100000000001205 15.489281122049183
    vertex -2.7499999999979305 1.100000000001205 11.36602540378454
  endloop
endfacet
facet normal 0.0 -1.0 0.0
  outer loop
    vertex -2.7499999999979305 1.100000000001205 11.36602540378454
    vertex 1.4438228390645235e-12 1.100000000001205 15.489281122049183
    vertex -2.9911809548947415 1.100000000001205 11.465925826289281
  endloop
endfacet
facet normal 0.0 -1.0 0.0
  outer loop
    vertex -2.9911809548947415 1.100000000001205 11.465925826289281
    vertex 1.4438228390645235e-12 1.100000000001205 15.489281122049183
    vertex -3.249999999997817 1.100000000001205 11.500000000000286
  endloop
endfacet
facet normal 0.0 -1.0 0.0
  outer loop
    vertex -6.499999999997078 1.100000000001205 6.499999999999974
    vertex -4.116025403781845 1.100000000001205 9.999999999999906
    vertex -6.499999999997078 1.100000000001205 15.489281122049183
  endloop
endfacet
facet normal 0.0 -1.0 0.0
  outer loop
    vertex -4.116025403781845 1.100000000001205 9.999999999999906
    vertex -6.499999999997078 1.100000000001205 6.499999999999974
    vertex -3.95710678118387 1.100000000001205 9.792893218813377
  endloop
endfacet
facet normal 0.0 -1.0 0.0
  outer loop
    vertex -3.95710678118387 1.100000000001205 9.792893218813377
    vertex -6.499999999997078 1.100000000001205 6.499999999999974
    vertex -3.749999999997703 1.100000000001205 9.633974596215765
  endloop
endfacet
facet normal 0.0 -1.0 0.0
  outer loop
    vertex -3.749999999997703 1.100000000001205 9.633974596215765
    vertex -6.499999999997078 1.100000000001205 6.499999999999974
    vertex -3.5088190451001706 1.100000000001205 9.534074173711025
  endloop
endfacet
facet normal 0.0 -1.0 0.0
  outer loop
    vertex -3.5088190451001706 1.100000000001205 9.534074173711025
    vertex -6.499999999997078 1.100000000001205 6.499999999999974
    vertex -3.249999999997817 1.100000000001205 9.50000000000002
  endloop
endfacet
facet normal 0.0 -1.0 0.0
  outer loop
    vertex -6.499999999997078 1.100000000001205 15.489281122049183
    vertex -4.116025403781845 1.100000000001205 9.999999999999906
    vertex -4.215925826286946 1.100000000001205 10.24118095489744
  endloop
endfacet
facet normal 0.0 -1.0 0.0
  outer loop
    vertex -6.499999999997078 1.100000000001205 15.489281122049183
    vertex -4.215925826286946 1.100000000001205 10.24118095489744
    vertex -4.2499999999975895 1.100000000001205 10.500000000000155
  endloop
endfacet
facet normal 0.0 -1.0 0.0
  outer loop
    vertex -6.499999999997078 1.100000000001205 15.489281122049183
    vertex -4.2499999999975895 1.100000000001205 10.500000000000155
    vertex -4.215925826286946 1.100000000001205 10.758819045102868
  endloop
endfacet
facet normal 0.0 -1.0 0.0
  outer loop
    vertex -6.499999999997078 1.100000000001205 15.489281122049183
    vertex -4.215925826286946 1.100000000001205 10.758819045102868
    vertex -4.116025403781845 1.100000000001205 11.000000000000039
  endloop
endfacet
facet normal 0.0 -1.0 0.0
  outer loop
    vertex -6.499999999997078 1.100000000001205 15.489281122049183
    vertex -4.116025403781845 1.100000000001205 11.000000000000039
    vertex -3.95710678118387 1.100000000001205 11.207106781186928
  endloop
endfacet
facet normal 0.0 -1.0 0.0
  outer loop
    vertex -6.499999999997078 1.100000000001205 15.489281122049183
    vertex -3.95710678118387 1.100000000001205 11.207106781186928
    vertex -3.749999999997703 1.100000000001205 11.36602540378454
  endloop
endfacet
facet normal 0.0 -1.0 0.0
  outer loop
    vertex -6.499999999997078 1.100000000001205 15.489281122049183
    vertex -3.749999999997703 1.100000000001205 11.36602540378454
    vertex -3.5088190451001706 1.100000000001205 11.465925826289281
  endloop
endfacet
facet normal 0.0 -1.0 0.0
  outer loop
    vertex -6.499999999997078 1.100000000001205 15.489281122049183
    vertex -3.5088190451001706 1.100000000001205 11.465925826289281
    vertex -3.249999999997817 1.100000000001205 11.500000000000286
  endloop
endfacet
facet normal 0.0 -1.0 0.0
  outer loop
    vertex -6.499999999997078 1.100000000001205 15.489281122049183
    vertex -3.249999999997817 1.100000000001205 11.500000000000286
    vertex 1.4438228390645235e-12 1.100000000001205 15.489281122049183
  endloop
endfacet
facet normal -0.0 1.0 -0.0
  outer loop
    vertex -6.499999999997078 25.10000000000116 6.499999999999974
    vertex -3.95710678118387 25.10000000000116 9.792893218813377
    vertex 1.4438228390645235e-12 25.10000000000116 6.499999999999974
  endloop
endfacet
facet normal -0.0 1.0 -0.0
  outer loop
    vertex -3.95710678118387 25.10000000000116 9.792893218813377
    vertex -6.499999999997078 25.10000000000116 6.499999999999974
    vertex -4.116025403781845 25.10000000000116 10.000000000000266
  endloop
endfacet
facet normal -0.0 1.0 -0.0
  outer loop
    vertex -4.116025403781845 25.10000000000116 10.000000000000266
    vertex -6.499999999997078 25.10000000000116 6.499999999999974
    vertex -6.499999999997078 25.10000000000116 15.489281122049183
  endloop
endfacet
facet normal -0.0 1.0 -0.0
  outer loop
    vertex 1.4438228390645235e-12 25.10000000000116 6.499999999999974
    vertex -3.95710678118387 25.10000000000116 9.792893218813377
    vertex -3.749999999997703 25.10000000000116 9.633974596215765
  endloop
endfacet
facet normal -0.0 1.0 -0.0
  outer loop
    vertex 1.4438228390645235e-12 25.10000000000116 6.499999999999974
    vertex -3.749999999997703 25.10000000000116 9.633974596215765
    vertex -3.5088190451001706 25.10000000000116 9.534074173711025
  endloop
endfacet
facet normal -0.0 1.0 -0.0
  outer loop
    vertex 1.4438228390645235e-12 25.10000000000116 6.499999999999974
    vertex -3.5088190451001706 25.10000000000116 9.534074173711025
    vertex -3.249999999997817 25.10000000000116 9.50000000000002
  endloop
endfacet
facet normal -0.0 1.0 -0.0
  outer loop
    vertex -4.116025403781845 25.10000000000116 10.000000000000266
    vertex -6.499999999997078 25.10000000000116 15.489281122049183
    vertex -4.215925826286946 25.10000000000116 10.24118095489744
  endloop
endfacet
facet normal -0.0 1.0 -0.0
  outer loop
    vertex -4.215925826286946 25.10000000000116 10.24118095489744
    vertex -6.499999999997078 25.10000000000116 15.489281122049183
    vertex -4.2499999999975895 25.10000000000116 10.500000000000155
  endloop
endfacet
facet normal -0.0 1.0 -0.0
  outer loop
    vertex -4.2499999999975895 25.10000000000116 10.500000000000155
    vertex -6.499999999997078 25.10000000000116 15.489281122049183
    vertex -4.215925826286946 25.10000000000116 10.758819045102868
  endloop
endfacet
facet normal -0.0 1.0 -0.0
  outer loop
    vertex -4.215925826286946 25.10000000000116 10.758819045102868
    vertex -6.499999999997078 25.10000000000116 15.489281122049183
    vertex -4.116025403781845 25.10000000000116 11.0000000000004
  endloop
endfacet
facet normal -0.0 1.0 -0.0
  outer loop
    vertex -4.116025403781845 25.10000000000116 11.0000000000004
    vertex -6.499999999997078 25.10000000000116 15.489281122049183
    vertex -3.95710678118387 25.10000000000116 11.207106781186928
  endloop
endfacet
facet normal -0.0 1.0 -0.0
  outer loop
    vertex -3.95710678118387 25.10000000000116 11.207106781186928
    vertex -6.499999999997078 25.10000000000116 15.489281122049183
    vertex -3.749999999997703 25.10000000000116 11.36602540378454
  endloop
endfacet
facet normal -0.0 1.0 -0.0
  outer loop
    vertex -3.749999999997703 25.10000000000116 11.36602540378454
    vertex -6.499999999997078 25.10000000000116 15.489281122049183
    vertex -3.5088190451001706 25.10000000000116 11.465925826289281
  endloop
endfacet
facet normal -0.0 1.0 -0.0
  outer loop
    vertex -3.5088190451001706 25.10000000000116 11.465925826289281
    vertex -6.499999999997078 25.10000000000116 15.489281122049183
    vertex -3.249999999997817 25.10000000000116 11.500000000000286
  endloop
endfacet
facet normal -0.0 1.0 -0.0
  outer loop
    vertex 1.4438228390645235e-12 25.10000000000116 6.499999999999974
    vertex -2.3839745962130676 25.10000000000116 9.999999999999906
    vertex 1.4438228390645235e-12 25.10000000000116 15.489281122049183
  endloop
endfacet
facet normal -0.0 1.0 -0.0
  outer loop
    vertex -2.3839745962130676 25.10000000000116 9.999999999999906
    vertex 1.4438228390645235e-12 25.10000000000116 6.499999999999974
    vertex -2.5428932188103204 25.10000000000116 9.792893218813377
  endloop
endfacet
facet normal -0.0 1.0 -0.0
  outer loop
    vertex -2.5428932188103204 25.10000000000116 9.792893218813377
    vertex 1.4438228390645235e-12 25.10000000000116 6.499999999999974
    vertex -2.7499999999979305 25.10000000000116 9.633974596215765
  endloop
endfacet
facet normal -0.0 1.0 -0.0
  outer loop
    vertex -2.7499999999979305 25.10000000000116 9.633974596215765
    vertex 1.4438228390645235e-12 25.10000000000116 6.499999999999974
    vertex -2.9911809548947415 25.10000000000116 9.534074173711025
  endloop
endfacet
facet normal -0.0 1.0 -0.0
  outer loop
    vertex -2.9911809548947415 25.10000000000116 9.534074173711025
    vertex 1.4438228390645235e-12 25.10000000000116 6.499999999999974
    vertex -3.249999999997817 25.10000000000116 9.50000000000002
  endloop
endfacet
facet normal -0.0 1.0 -0.0
  outer loop
    vertex 1.4438228390645235e-12 25.10000000000116 15.489281122049183
    vertex -2.3839745962130676 25.10000000000116 9.999999999999906
    vertex -2.2840741737086887 25.10000000000116 10.24118095489744
  endloop
endfacet
facet normal -0.0 1.0 -0.0
  outer loop
    vertex 1.4438228390645235e-12 25.10000000000116 15.489281122049183
    vertex -2.2840741737086887 25.10000000000116 10.24118095489744
    vertex -2.2499999999973226 25.10000000000116 10.500000000000155
  endloop
endfacet
facet normal -0.0 1.0 -0.0
  outer loop
    vertex 1.4438228390645235e-12 25.10000000000116 15.489281122049183
    vertex -2.2499999999973226 25.10000000000116 10.500000000000155
    vertex -2.2840741737086887 25.10000000000116 10.758819045102868
  endloop
endfacet
facet normal -0.0 1.0 -0.0
  outer loop
    vertex 1.4438228390645235e-12 25.10000000000116 15.489281122049183
    vertex -2.2840741737086887 25.10000000000116 10.758819045102868
    vertex -2.3839745962130676 25.10000000000116 11.000000000000039
  endloop
endfacet
facet normal -0.0 1.0 -0.0
  outer loop
    vertex 1.4438228390645235e-12 25.10000000000116 15.489281122049183
    vertex -2.3839745962130676 25.10000000000116 11.000000000000039
    vertex -2.5428932188103204 25.10000000000116 11.207106781186928
  endloop
endfacet
facet normal -0.0 1.0 -0.0
  outer loop
    vertex 1.4438228390645235e-12 25.10000000000116 15.489281122049183
    vertex -2.5428932188103204 25.10000000000116 11.207106781186928
    vertex -2.749999999997209 25.10000000000116 11.36602540378454
  endloop
endfacet
facet normal -0.0 1.0 -0.0
  outer loop
    vertex 1.4438228390645235e-12 25.10000000000116 15.489281122049183
    vertex -2.749999999997209 25.10000000000116 11.36602540378454
    vertex -2.9911809548947415 25.10000000000116 11.465925826289281
  endloop
endfacet
facet normal -0.0 1.0 -0.0
  outer loop
    vertex 1.4438228390645235e-12 25.10000000000116 15.489281122049183
    vertex -2.9911809548947415 25.10000000000116 11.465925826289281
    vertex -3.249999999997817 25.10000000000116 11.500000000000286
  endloop
endfacet
facet normal -0.0 1.0 -0.0
  outer loop
    vertex 1.4438228390645235e-12 25.10000000000116 15.489281122049183
    vertex -3.249999999997817 25.10000000000116 11.500000000000286
    vertex -6.499999999997078 25.10000000000116 15.489281122049183
  endloop
endfacet
facet normal -1.491039555504719e-30 1.0 -9.940263703364792e-31
  outer loop
    vertex -3.5088190451001706 25.10000000000116 9.534074173711025
    vertex -2.9911809548947415 25.10000000000116 9.534074173711025
    vertex -3.249999999997817 25.10000000000116 9.50000000000002
  endloop
endfacet
facet normal -1.491039555504719e-30 1.0 -9.940263703364792e-31
  outer loop
    vertex -2.9911809548947415 25.10000000000116 9.534074173711025
    vertex -3.5088190451001706 25.10000000000116 9.534074173711025
    vertex -3.749999999997703 25.10000000000116 9.633974596215765
  endloop
endfacet
facet normal -1.491039555504719e-30 1.0 -9.940263703364792e-31
  outer loop
    vertex -2.9911809548947415 25.10000000000116 9.534074173711025
    vertex -3.749999999997703 25.10000000000116 9.633974596215765
    vertex -2.7499999999979305 25.10000000000116 9.633974596215765
  endloop
endfacet
facet normal -1.491039555504719e-30 1.0 -9.940263703364792e-31
  outer loop
    vertex -2.7499999999979305 25.10000000000116 9.633974596215765
    vertex -3.749999999997703 25.10000000000116 9.633974596215765
    vertex -3.95710678118387 25.10000000000116 9.792893218813377
  endloop
endfacet
facet normal -1.491039555504719e-30 1.0 -9.940263703364792e-31
  outer loop
    vertex -2.7499999999979305 25.10000000000116 9.633974596215765
    vertex -3.95710678118387 25.10000000000116 9.792893218813377
    vertex -2.5428932188103204 25.10000000000116 9.792893218813377
  endloop
endfacet
facet normal -1.491039555504719e-30 1.0 -9.940263703364792e-31
  outer loop
    vertex -2.5428932188103204 25.10000000000116 9.792893218813377
    vertex -3.95710678118387 25.10000000000116 9.792893218813377
    vertex -4.116025403781845 25.10000000000116 10.000000000000266
  endloop
endfacet
facet normal -1.491039555504719e-30 1.0 -9.940263703364792e-31
  outer loop
    vertex -2.5428932188103204 25.10000000000116 9.792893218813377
    vertex -4.116025403781845 25.10000000000116 10.000000000000266
    vertex -2.3839745962130676 25.10000000000116 9.999999999999906
  endloop
endfacet
facet normal -1.491039555504719e-30 1.0 -9.940263703364792e-31
  outer loop
    vertex -2.3839745962130676 25.10000000000116 9.999999999999906
    vertex -4.116025403781845 25.10000000000116 10.000000000000266
    vertex -2.2840741737086887 25.10000000000116 10.24118095489744
  endloop
endfacet
facet normal -1.491039555504719e-30 1.0 -9.940263703364792e-31
  outer loop
    vertex -2.2840741737086887 25.10000000000116 10.24118095489744
    vertex -4.116025403781845 25.10000000000116 10.000000000000266
    vertex -4.215925826286946 25.10000000000116 10.24118095489744
  endloop
endfacet
facet normal -1.491039555504719e-30 1.0 -9.940263703364792e-31
  outer loop
    vertex -2.2840741737086887 25.10000000000116 10.24118095489744
    vertex -4.215925826286946 25.10000000000116 10.24118095489744
    vertex -4.2499999999975895 25.10000000000116 10.500000000000155
  endloop
endfacet
facet normal -1.491039555504719e-30 1.0 -9.940263703364792e-31
  outer loop
    vertex -2.2840741737086887 25.10000000000116 10.24118095489744
    vertex -4.2499999999975895 25.10000000000116 10.500000000000155
    vertex -2.2499999999973226 25.10000000000116 10.500000000000155
  endloop
endfacet
facet normal -1.491039555504719e-30 1.0 -9.940263703364792e-31
  outer loop
    vertex -2.2499999999973226 25.10000000000116 10.500000000000155
    vertex -4.2499999999975895 25.10000000000116 10.500000000000155
    vertex -4.215925826286946 25.10000000000116 10.758819045102868
  endloop
endfacet
facet normal -1.491039555504719e-30 1.0 -9.940263703364792e-31
  outer loop
    vertex -2.2499999999973226 25.10000000000116 10.500000000000155
    vertex -4.215925826286946 25.10000000000116 10.758819045102868
    vertex -2.2840741737086887 25.10000000000116 10.758819045102868
  endloop
endfacet
facet normal -1.491039555504719e-30 1.0 -9.940263703364792e-31
  outer loop
    vertex -2.2840741737086887 25.10000000000116 10.758819045102868
    vertex -4.215925826286946 25.10000000000116 10.758819045102868
    vertex -4.116025403781845 25.10000000000116 11.0000000000004
  endloop
endfacet
facet normal -1.491039555504719e-30 1.0 -9.940263703364792e-31
  outer loop
    vertex -2.2840741737086887 25.10000000000116 10.758819045102868
    vertex -4.116025403781845 25.10000000000116 11.0000000000004
    vertex -2.3839745962130676 25.10000000000116 11.000000000000039
  endloop
endfacet
facet normal -1.491039555504719e-30 1.0 -9.940263703364792e-31
  outer loop
    vertex -2.3839745962130676 25.10000000000116 11.000000000000039
    vertex -4.116025403781845 25.10000000000116 11.0000000000004
    vertex -2.5428932188103204 25.10000000000116 11.207106781186928
  endloop
endfacet
facet normal -1.491039555504719e-30 1.0 -9.940263703364792e-31
  outer loop
    vertex -2.5428932188103204 25.10000000000116 11.207106781186928
    vertex -4.116025403781845 25.10000000000116 11.0000000000004
    vertex -3.95710678118387 25.10000000000116 11.207106781186928
  endloop
endfacet
facet normal -1.491039555504719e-30 1.0 -9.940263703364792e-31
  outer loop
    vertex -2.5428932188103204 25.10000000000116 11.207106781186928
    vertex -3.95710678118387 25.10000000000116 11.207106781186928
    vertex -3.749999999997703 25.10000000000116 11.36602540378454
  endloop
endfacet
facet normal -1.491039555504719e-30 1.0 -9.940263703364792e-31
  outer loop
    vertex -2.5428932188103204 25.10000000000116 11.207106781186928
    vertex -3.749999999997703 25.10000000000116 11.36602540378454
    vertex -2.749999999997209 25.10000000000116 11.36602540378454
  endloop
endfacet
facet normal -1.491039555504719e-30 1.0 -9.940263703364792e-31
  outer loop
    vertex -2.749999999997209 25.10000000000116 11.36602540378454
    vertex -3.749999999997703 25.10000000000116 11.36602540378454
    vertex -3.5088190451001706 25.10000000000116 11.465925826289281
  endloop
endfacet
facet normal -1.491039555504719e-30 1.0 -9.940263703364792e-31
  outer loop
    vertex -2.749999999997209 25.10000000000116 11.36602540378454
    vertex -3.5088190451001706 25.10000000000116 11.465925826289281
    vertex -2.9911809548947415 25.10000000000116 11.465925826289281
  endloop
endfacet
facet normal -1.491039555504719e-30 1.0 -9.940263703364792e-31
  outer loop
    vertex -2.9911809548947415 25.10000000000116 11.465925826289281
    vertex -3.5088190451001706 25.10000000000116 11.465925826289281
    vertex -3.249999999997817 25.10000000000116 11.500000000000286
  endloop
endfacet
facet normal -1.0 -3.051149874979224e-27 8.746780324122423e-14
  outer loop
    vertex -6.499999999997078 25.10000000000116 15.489281122049183
    vertex -6.499999999997078 1.100000000001205 6.499999999999974
    vertex -6.499999999997078 1.100000000001205 15.489281122049183
  endloop
endfacet
facet normal -1.0 -3.051149874979224e-27 8.746780324122423e-14
  outer loop
    vertex -6.499999999997078 1.100000000001205 6.499999999999974
    vertex -6.499999999997078 25.10000000000116 15.489281122049183
    vertex -6.499999999998522 7.100000000001279 -3.6095570976613087e-13
  endloop
endfacet
facet normal -1.0 -3.051149874979224e-27 8.746780324122423e-14
  outer loop
    vertex -6.499999999998522 7.100000000001279 -3.6095570976613087e-13
    vertex -6.499999999997078 25.10000000000116 15.489281122049183
    vertex -6.499999999998522 19.100000000002524 2.526689968362916e-12
  endloop
endfacet
facet normal -1.0 -3.051149874979224e-27 8.746780324122423e-14
  outer loop
    vertex -6.499999999998522 19.100000000002524 2.526689968362916e-12
    vertex -6.499999999997078 25.10000000000116 15.489281122049183
    vertex -6.499999999997078 25.10000000000116 6.499999999999974
  endloop
endfacet
facet normal -2.22218617100025e-14 -0.7348034446275123 -0.6782801027330394
  outer loop
    vertex 1.4438228390645235e-12 1.100000000001205 6.499999999999974
    vertex -0.4910226103753075 6.823822368539274 0.29919243408320745
    vertex 0.0 7.100000000001279 -7.219114195322617e-13
  endloop
endfacet
facet normal -2.22218617100025e-14 -0.7348034446275123 -0.6782801027330394
  outer loop
    vertex -0.4910226103753075 6.823822368539274 0.29919243408320745
    vertex 1.4438228390645235e-12 1.100000000001205 6.499999999999974
    vertex -1.009337063792634 6.594034713532054 0.5481290603413302
  endloop
endfacet
facet normal -2.22218617100025e-14 -0.7348034446275123 -0.6782801027330394
  outer loop
    vertex -1.009337063792634 6.594034713532054 0.5481290603413302
    vertex 1.4438228390645235e-12 1.100000000001205 6.499999999999974
    vertex -1.5498161864072244 6.412910097686834 0.7443473941732222
  endloop
endfacet
facet normal -2.22218617100025e-14 -0.7348034446275123 -0.6782801027330394
  outer loop
    vertex -1.5498161864072244 6.412910097686834 0.7443473941732222
    vertex 1.4438228390645235e-12 1.100000000001205 6.499999999999974
    vertex -2.1071135511555212 6.282240208244714 0.8859064410687622
  endloop
endfacet
facet normal -2.22218617100025e-14 -0.7348034446275123 -0.6782801027330394
  outer loop
    vertex -2.1071135511555212 6.282240208244714 0.8859064410687622
    vertex 1.4438228390645235e-12 1.100000000001205 6.499999999999974
    vertex -2.6757163646890545 6.203317633585392 0.9714058969497542
  endloop
endfacet
facet normal -2.22218617100025e-14 -0.7348034446275123 -0.6782801027330394
  outer loop
    vertex -2.6757163646890545 6.203317633585392 0.9714058969497542
    vertex 1.4438228390645235e-12 1.100000000001205 6.499999999999974
    vertex -3.249999999999261 6.176923076924835 0.9999999999990521
  endloop
endfacet
facet normal -2.22218617100025e-14 -0.7348034446275123 -0.6782801027330394
  outer loop
    vertex -6.008977389623214 6.823822368539815 0.29919243408320745
    vertex -6.499999999997078 1.100000000001205 6.499999999999974
    vertex -6.499999999998522 7.100000000001279 -3.6095570976613087e-13
  endloop
endfacet
facet normal -2.22218617100025e-14 -0.7348034446275123 -0.6782801027330394
  outer loop
    vertex -6.499999999997078 1.100000000001205 6.499999999999974
    vertex -6.008977389623214 6.823822368539815 0.29919243408320745
    vertex -5.490662936204444 6.594034713531872 0.5481290603413302
  endloop
endfacet
facet normal -2.22218617100025e-14 -0.7348034446275123 -0.6782801027330394
  outer loop
    vertex -6.499999999997078 1.100000000001205 6.499999999999974
    vertex -5.490662936204444 6.594034713531872 0.5481290603413302
    vertex -4.950183813589853 6.412910097687014 0.7443473941728612
  endloop
endfacet
facet normal -2.22218617100025e-14 -0.7348034446275123 -0.6782801027330394
  outer loop
    vertex -6.499999999997078 1.100000000001205 6.499999999999974
    vertex -4.950183813589853 6.412910097687014 0.7443473941728612
    vertex -4.392886448841557 6.282240208245616 0.8859064410680403
  endloop
endfacet
facet normal -2.22218617100025e-14 -0.7348034446275123 -0.6782801027330394
  outer loop
    vertex -6.499999999997078 1.100000000001205 6.499999999999974
    vertex -4.392886448841557 6.282240208245616 0.8859064410680403
    vertex -3.8242836353087455 6.203317633586295 0.9714058969490323
  endloop
endfacet
facet normal -2.22218617100025e-14 -0.7348034446275123 -0.6782801027330394
  outer loop
    vertex -6.499999999997078 1.100000000001205 6.499999999999974
    vertex -3.8242836353087455 6.203317633586295 0.9714058969490323
    vertex -3.249999999999261 6.176923076924835 0.9999999999990521
  endloop
endfacet
facet normal -2.22218617100025e-14 -0.7348034446275123 -0.6782801027330394
  outer loop
    vertex -6.499999999997078 1.100000000001205 6.499999999999974
    vertex -3.249999999999261 6.176923076924835 0.9999999999990521
    vertex 1.4438228390645235e-12 1.100000000001205 6.499999999999974
  endloop
endfacet
facet normal 0.049729302298285705 1.4364456199136614e-14 -0.9987627328314398
  outer loop
    vertex -3.249999999999261 20.02307692307645 0.999999999999413
    vertex -3.8242836353087455 6.203317633586295 0.9714058969490323
    vertex -3.824283635309467 19.996682366414987 0.9714058969490323
  endloop
endfacet
facet normal 0.049729302298285705 1.4364456199136614e-14 -0.9987627328314398
  outer loop
    vertex -3.8242836353087455 6.203317633586295 0.9714058969490323
    vertex -3.249999999999261 20.02307692307645 0.999999999999413
    vertex -3.249999999999261 6.176923076924835 0.9999999999990521
  endloop
endfacet
facet normal -0.049729302297002106 1.3068131421095952e-14 -0.9987627328315035
  outer loop
    vertex -2.6757163646890545 19.99668236641553 0.9714058969497542
    vertex -3.249999999999261 6.176923076924835 0.9999999999990521
    vertex -3.249999999999261 20.02307692307645 0.999999999999413
  endloop
endfacet
facet normal -0.049729302297002106 1.3068131421095952e-14 -0.9987627328315035
  outer loop
    vertex -3.249999999999261 6.176923076924835 0.9999999999990521
    vertex -2.6757163646890545 19.99668236641553 0.9714058969497542
    vertex -2.6757163646890545 6.203317633585392 0.9714058969497542
  endloop
endfacet
endsolid Probe_64_15Mhz (1)
