solid Probe_holder_marmoset_probe
facet normal -0.0 -0.0 1.0
  outer loop
    vertex -5.841728616526825 1.700000000000001 32.7131191573464
    vertex -7.851284296526823 9.700000000000001 32.7131191573464
    vertex -7.851284296526823 1.700000000000001 32.7131191573464
  endloop
endfacet
facet normal -0.0 -0.0 1.0
  outer loop
    vertex -7.851284296526823 9.700000000000001 32.7131191573464
    vertex -5.841728616526825 1.700000000000001 32.7131191573464
    vertex -5.841728616526832 7.7 32.7131191573464
  endloop
endfacet
facet normal -0.0 -0.0 1.0
  outer loop
    vertex 26.463383863473172 1.7000000000000028 32.7131191573464
    vertex 24.480681501873157 7.7 32.7131191573464
    vertex 24.48068150187315 1.700000000000001 32.7131191573464
  endloop
endfacet
facet normal -0.0 -0.0 1.0
  outer loop
    vertex -5.841728616526832 7.7 32.7131191573464
    vertex 26.463383863473183 9.699999999999994 32.7131191573464
    vertex -7.851284296526823 9.700000000000001 32.7131191573464
  endloop
endfacet
facet normal -0.0 -0.0 1.0
  outer loop
    vertex 26.463383863473183 9.699999999999994 32.7131191573464
    vertex -5.841728616526832 7.7 32.7131191573464
    vertex 24.480681501873157 7.7 32.7131191573464
  endloop
endfacet
facet normal -0.0 -0.0 1.0
  outer loop
    vertex 26.463383863473183 9.699999999999994 32.7131191573464
    vertex 24.480681501873157 7.7 32.7131191573464
    vertex 26.463383863473172 1.7000000000000028 32.7131191573464
  endloop
endfacet
facet normal -0.0 -0.0 1.0
  outer loop
    vertex -7.851284296526826 -2.3 32.7131191573464
    vertex -5.841728616526832 -0.3 32.7131191573464
    vertex -7.851284296526823 1.700000000000001 32.7131191573464
  endloop
endfacet
facet normal -0.0 -0.0 1.0
  outer loop
    vertex -5.841728616526832 -0.3 32.7131191573464
    vertex -7.851284296526826 -2.3 32.7131191573464
    vertex 26.463383863473172 -2.3000000000000007 32.7131191573464
  endloop
endfacet
facet normal -0.0 -0.0 1.0
  outer loop
    vertex -5.841728616526832 -0.3 32.7131191573464
    vertex 26.463383863473172 -2.3000000000000007 32.7131191573464
    vertex 24.480681501873157 -0.3 32.7131191573464
  endloop
endfacet
facet normal -0.0 -0.0 1.0
  outer loop
    vertex 24.480681501873157 -0.3 32.7131191573464
    vertex 26.463383863473172 1.7000000000000028 32.7131191573464
    vertex 24.48068150187315 1.700000000000001 32.7131191573464
  endloop
endfacet
facet normal -0.0 -0.0 1.0
  outer loop
    vertex 26.463383863473172 1.7000000000000028 32.7131191573464
    vertex 24.480681501873157 -0.3 32.7131191573464
    vertex 26.463383863473172 -2.3000000000000007 32.7131191573464
  endloop
endfacet
facet normal -0.0 -0.0 1.0
  outer loop
    vertex -5.841728616526825 1.700000000000001 32.7131191573464
    vertex -7.851284296526823 1.700000000000001 32.7131191573464
    vertex -5.841728616526832 -0.3 32.7131191573464
  endloop
endfacet
facet normal 1.0 -8.980087439570009e-16 -4.0332705468970277e-16
  outer loop
    vertex 26.463383863473158 -2.2999999999999945 7.922913157346405
    vertex 26.463383863473172 1.7000000000000028 32.7131191573464
    vertex 26.463383863473172 -2.3000000000000007 32.7131191573464
  endloop
endfacet
facet normal 1.0 -8.980087439570009e-16 -4.0332705468970277e-16
  outer loop
    vertex 26.463383863473172 1.7000000000000028 32.7131191573464
    vertex 26.463383863473158 -2.2999999999999945 7.922913157346405
    vertex 26.463383863473172 9.699999999999992 7.92291315734641
  endloop
endfacet
facet normal 1.0 -8.980087439570009e-16 -4.0332705468970277e-16
  outer loop
    vertex 26.463383863473172 1.7000000000000028 32.7131191573464
    vertex 26.463383863473172 9.699999999999992 7.92291315734641
    vertex 26.463383863473183 9.699999999999994 32.7131191573464
  endloop
endfacet
facet normal 1.4525298764553633e-16 -1.0 -1.137586184489555e-16
  outer loop
    vertex 26.463383863473172 -2.3000000000000007 32.7131191573464
    vertex 22.455218856065894 -2.299999999999993 7.922913157346448
    vertex 26.463383863473158 -2.2999999999999945 7.922913157346405
  endloop
endfacet
facet normal 1.4525298764553633e-16 -1.0 -1.137586184489555e-16
  outer loop
    vertex 22.455218856065894 -2.299999999999993 7.922913157346448
    vertex -7.851284296526816 -2.300000000000002 7.9229131573464056
    vertex -3.8784662997268353 -2.3 7.902333157346452
  endloop
endfacet
facet normal 1.4525298764553633e-16 -1.0 -1.137586184489555e-16
  outer loop
    vertex -7.851284296526816 -2.300000000000002 7.9229131573464056
    vertex 22.455218856065894 -2.299999999999993 7.922913157346448
    vertex -7.851284296526826 -2.3 32.7131191573464
  endloop
endfacet
facet normal 1.4525298764553633e-16 -1.0 -1.137586184489555e-16
  outer loop
    vertex -7.851284296526826 -2.3 32.7131191573464
    vertex 22.455218856065894 -2.299999999999993 7.922913157346448
    vertex 26.463383863473172 -2.3000000000000007 32.7131191573464
  endloop
endfacet
facet normal -0.0 1.0 -0.0
  outer loop
    vertex 19.51977320591008 -1.5999999999999999 18.717291157346402
    vertex 26.236413474710027 -1.5999999999999999 13.415841157346401
    vertex 19.51977320591008 -1.5999999999999999 13.415841157346401
  endloop
endfacet
facet normal -0.0 1.0 -0.0
  outer loop
    vertex 26.236413474710027 -1.5999999999999999 13.415841157346401
    vertex 19.51977320591008 -1.5999999999999999 18.717291157346402
    vertex 26.236413474710027 -1.5999999999999999 18.717291157346402
  endloop
endfacet
facet normal 0.0 -1.0 0.0
  outer loop
    vertex 26.236413474710027 8.899999999999999 18.717291157346402
    vertex 19.51977320591008 8.899999999999999 13.415841157346401
    vertex 26.236413474710027 8.899999999999999 13.415841157346401
  endloop
endfacet
facet normal 0.0 -1.0 0.0
  outer loop
    vertex 19.51977320591008 8.899999999999999 13.415841157346401
    vertex 26.236413474710027 8.899999999999999 18.717291157346402
    vertex 19.51977320591008 8.899999999999999 18.717291157346402
  endloop
endfacet
facet normal -9.068325317972908e-17 1.0 -1.135964908202079e-16
  outer loop
    vertex -7.851284296526813 9.69999999999999 7.9229131573464056
    vertex 22.4552188560659 9.700000000000001 7.922913157346411
    vertex -3.878466299726828 9.700000000000001 7.902333157346406
  endloop
endfacet
facet normal -9.068325317972908e-17 1.0 -1.135964908202079e-16
  outer loop
    vertex 22.4552188560659 9.700000000000001 7.922913157346411
    vertex -7.851284296526813 9.69999999999999 7.9229131573464056
    vertex -7.851284296526823 9.700000000000001 32.7131191573464
  endloop
endfacet
facet normal -9.068325317972908e-17 1.0 -1.135964908202079e-16
  outer loop
    vertex 22.4552188560659 9.700000000000001 7.922913157346411
    vertex 26.463383863473183 9.699999999999994 32.7131191573464
    vertex 26.463383863473172 9.699999999999992 7.92291315734641
  endloop
endfacet
facet normal -9.068325317972908e-17 1.0 -1.135964908202079e-16
  outer loop
    vertex 26.463383863473183 9.699999999999994 32.7131191573464
    vertex 22.4552188560659 9.700000000000001 7.922913157346411
    vertex -7.851284296526823 9.700000000000001 32.7131191573464
  endloop
endfacet
facet normal 0.8631186550948776 0.0008883500470826801 0.505000394120048
  outer loop
    vertex -2.510261800526835 7.7 7.902333157346408
    vertex -5.868581934926834 -0.3 13.627899157346416
    vertex -2.510261800526835 -0.3 7.902333157346408
  endloop
endfacet
facet normal 0.8631186550948776 0.0008883500470826801 0.505000394120048
  outer loop
    vertex -5.868581934926834 -0.3 13.627899157346416
    vertex -2.510261800526835 7.7 7.902333157346408
    vertex -5.868581934926834 7.7 13.627899157346416
  endloop
endfacet
facet normal -0.8625695209191256 -8.847396508904892e-17 0.50593855514415
  outer loop
    vertex 24.480681501873164 7.7 13.627899157346416
    vertex 21.12236136747315 -0.3 7.902333157346406
    vertex 24.480681501873164 -0.3 13.627899157346416
  endloop
endfacet
facet normal -0.8625695209191256 -8.847396508904892e-17 0.50593855514415
  outer loop
    vertex 21.12236136747315 -0.3 7.902333157346406
    vertex 24.480681501873164 7.7 13.627899157346416
    vertex 21.12236136747315 7.7 7.902333157346408
  endloop
endfacet
facet normal 0.0 -1.0 0.0
  outer loop
    vertex 24.480681501873157 7.7 32.7131191573464
    vertex -5.841728616526832 7.7 13.627899157346416
    vertex 24.480681501873164 7.7 13.627899157346416
  endloop
endfacet
facet normal 0.0 -1.0 0.0
  outer loop
    vertex -5.841728616526832 7.7 13.627899157346416
    vertex 24.480681501873157 7.7 32.7131191573464
    vertex -5.841728616526832 7.7 32.7131191573464
  endloop
endfacet
facet normal 0.0 -1.0 0.0
  outer loop
    vertex 24.480681501873164 7.7 13.627899157346416
    vertex -2.510261800526835 7.7 7.902333157346408
    vertex 21.12236136747315 7.7 7.902333157346408
  endloop
endfacet
facet normal 0.0 -1.0 0.0
  outer loop
    vertex -2.510261800526835 7.7 7.902333157346408
    vertex 24.480681501873164 7.7 13.627899157346416
    vertex -5.868581934926834 7.7 13.627899157346416
  endloop
endfacet
facet normal 0.0 -1.0 0.0
  outer loop
    vertex -5.868581934926834 7.7 13.627899157346416
    vertex 24.480681501873164 7.7 13.627899157346416
    vertex -5.841728616526832 7.7 13.627899157346416
  endloop
endfacet
facet normal -0.0 1.0 -0.0
  outer loop
    vertex 24.480681501873164 -0.3 13.627899157346416
    vertex 21.12236136747315 -0.3 7.902333157346406
    vertex 21.12236136747315 -0.3 13.627899157346416
  endloop
endfacet
facet normal 1.0 1.4099832412739476e-16 -1.1820524919483876e-16
  outer loop
    vertex -5.841728616526832 7.7 13.627899157346416
    vertex -5.841728616526832 -0.3 32.7131191573464
    vertex -5.841728616526832 -0.3 13.627899157346416
  endloop
endfacet
facet normal 1.0 1.4099832412739476e-16 -1.1820524919483876e-16
  outer loop
    vertex -5.841728616526832 -0.3 32.7131191573464
    vertex -5.841728616526832 7.7 13.627899157346416
    vertex -5.841728616526825 1.700000000000001 32.7131191573464
  endloop
endfacet
facet normal 1.0 1.4099832412739476e-16 -1.1820524919483876e-16
  outer loop
    vertex -5.841728616526825 1.700000000000001 32.7131191573464
    vertex -5.841728616526832 7.7 13.627899157346416
    vertex -5.841728616526832 7.7 32.7131191573464
  endloop
endfacet
facet normal 0.0 0.0 -1.0
  outer loop
    vertex -5.841728616526832 7.7 13.627899157346416
    vertex -5.868581934926834 -0.3 13.627899157346416
    vertex -5.868581934926834 7.7 13.627899157346416
  endloop
endfacet
facet normal 0.0 0.0 -1.0
  outer loop
    vertex -5.868581934926834 -0.3 13.627899157346416
    vertex -5.841728616526832 7.7 13.627899157346416
    vertex -5.841728616526832 -0.3 13.627899157346416
  endloop
endfacet
facet normal -0.0 1.0 -0.0
  outer loop
    vertex -2.510261800526835 -0.3 7.902333157346408
    vertex 21.12236136747315 -0.3 13.627899157346416
    vertex 21.12236136747315 -0.3 7.902333157346406
  endloop
endfacet
facet normal -0.0 1.0 -0.0
  outer loop
    vertex 21.12236136747315 -0.3 13.627899157346416
    vertex -2.510261800526835 -0.3 7.902333157346408
    vertex -5.868581934926834 -0.3 13.627899157346416
  endloop
endfacet
facet normal -0.0 1.0 -0.0
  outer loop
    vertex 21.12236136747315 -0.3 13.627899157346416
    vertex -5.868581934926834 -0.3 13.627899157346416
    vertex -5.841728616526832 -0.3 13.627899157346416
  endloop
endfacet
facet normal -0.0 1.0 -0.0
  outer loop
    vertex 21.12236136747315 -0.3 13.627899157346416
    vertex -5.841728616526832 -0.3 13.627899157346416
    vertex -5.841728616526832 -0.3 32.7131191573464
  endloop
endfacet
facet normal -0.0 1.0 -0.0
  outer loop
    vertex 21.12236136747315 -0.3 13.627899157346416
    vertex -5.841728616526832 -0.3 32.7131191573464
    vertex 24.480681501873164 -0.3 13.627899157346416
  endloop
endfacet
facet normal -0.0 1.0 -0.0
  outer loop
    vertex 24.480681501873164 -0.3 13.627899157346416
    vertex -5.841728616526832 -0.3 32.7131191573464
    vertex 24.480681501873157 -0.3 32.7131191573464
  endloop
endfacet
facet normal -1.0 1.1279865930191578e-16 -5.378338838365162e-16
  outer loop
    vertex 24.48068150187315 1.700000000000001 32.7131191573464
    vertex 24.480681501873164 -0.3 13.627899157346416
    vertex 24.480681501873157 -0.3 32.7131191573464
  endloop
endfacet
facet normal -1.0 1.1279865930191578e-16 -5.378338838365162e-16
  outer loop
    vertex 24.480681501873164 -0.3 13.627899157346416
    vertex 24.48068150187315 1.700000000000001 32.7131191573464
    vertex 24.480681501873164 7.7 13.627899157346416
  endloop
endfacet
facet normal -1.0 1.1279865930191578e-16 -5.378338838365162e-16
  outer loop
    vertex 24.480681501873164 7.7 13.627899157346416
    vertex 24.48068150187315 1.700000000000001 32.7131191573464
    vertex 24.480681501873157 7.7 32.7131191573464
  endloop
endfacet
facet normal 0.0007815083074615267 -3.2000656140758963e-15 -0.9999996946223362
  outer loop
    vertex 22.4552188560659 9.700000000000001 7.922913157346411
    vertex -2.510261800526835 7.7 7.902333157346408
    vertex -3.878466299726828 9.700000000000001 7.902333157346406
  endloop
endfacet
facet normal 0.0007815083074615267 -3.2000656140758963e-15 -0.9999996946223362
  outer loop
    vertex -2.510261800526835 7.7 7.902333157346408
    vertex 22.4552188560659 9.700000000000001 7.922913157346411
    vertex 21.12236136747315 7.7 7.902333157346408
  endloop
endfacet
facet normal 0.0007815083074615267 -3.2000656140758963e-15 -0.9999996946223362
  outer loop
    vertex 21.12236136747315 7.7 7.902333157346408
    vertex 22.4552188560659 9.700000000000001 7.922913157346411
    vertex 21.12236136747315 -0.3 7.902333157346406
  endloop
endfacet
facet normal 0.0007815083074615267 -3.2000656140758963e-15 -0.9999996946223362
  outer loop
    vertex 21.12236136747315 -0.3 7.902333157346406
    vertex 22.4552188560659 9.700000000000001 7.922913157346411
    vertex 22.455218856065894 -2.299999999999993 7.922913157346448
  endloop
endfacet
facet normal 0.0007815083074615267 -3.2000656140758963e-15 -0.9999996946223362
  outer loop
    vertex -3.8784662997268353 -2.3 7.902333157346452
    vertex -2.510261800526835 -0.3 7.902333157346408
    vertex 22.455218856065894 -2.299999999999993 7.922913157346448
  endloop
endfacet
facet normal 0.0007815083074615267 -3.2000656140758963e-15 -0.9999996946223362
  outer loop
    vertex -2.510261800526835 -0.3 7.902333157346408
    vertex -3.8784662997268353 -2.3 7.902333157346452
    vertex -3.878466299726828 9.700000000000001 7.902333157346406
  endloop
endfacet
facet normal 0.0007815083074615267 -3.2000656140758963e-15 -0.9999996946223362
  outer loop
    vertex -2.510261800526835 -0.3 7.902333157346408
    vertex -3.878466299726828 9.700000000000001 7.902333157346406
    vertex -2.510261800526835 7.7 7.902333157346408
  endloop
endfacet
facet normal 0.0007815083074615267 -3.2000656140758963e-15 -0.9999996946223362
  outer loop
    vertex 22.455218856065894 -2.299999999999993 7.922913157346448
    vertex -2.510261800526835 -0.3 7.902333157346408
    vertex 21.12236136747315 -0.3 7.902333157346406
  endloop
endfacet
facet normal -4.0956891868790046e-15 -1.1930627426164167e-15 -1.0
  outer loop
    vertex 22.4552188560659 9.700000000000001 7.922913157346411
    vertex 26.463383863473158 -2.2999999999999945 7.922913157346405
    vertex 22.455218856065894 -2.299999999999993 7.922913157346448
  endloop
endfacet
facet normal -4.0956891868790046e-15 -1.1930627426164167e-15 -1.0
  outer loop
    vertex 26.463383863473158 -2.2999999999999945 7.922913157346405
    vertex 22.4552188560659 9.700000000000001 7.922913157346411
    vertex 26.463383863473172 9.699999999999992 7.92291315734641
  endloop
endfacet
facet normal -1.0 2.0259953369761598e-16 -3.737291218701956e-16
  outer loop
    vertex -7.851284296526826 -2.3 32.7131191573464
    vertex -7.851284296526813 9.69999999999999 7.9229131573464056
    vertex -7.851284296526816 -2.300000000000002 7.9229131573464056
  endloop
endfacet
facet normal -1.0 2.0259953369761598e-16 -3.737291218701956e-16
  outer loop
    vertex -7.851284296526813 9.69999999999999 7.9229131573464056
    vertex -7.851284296526826 -2.3 32.7131191573464
    vertex -7.851284296526823 1.700000000000001 32.7131191573464
  endloop
endfacet
facet normal -1.0 2.0259953369761598e-16 -3.737291218701956e-16
  outer loop
    vertex -7.851284296526813 9.69999999999999 7.9229131573464056
    vertex -7.851284296526823 1.700000000000001 32.7131191573464
    vertex -7.851284296526823 9.700000000000001 32.7131191573464
  endloop
endfacet
facet normal -0.00518013256463615 -1.7876581702840032e-15 -0.9999865830232989
  outer loop
    vertex -7.851284296526813 9.69999999999999 7.9229131573464056
    vertex -3.8784662997268353 -2.3 7.902333157346452
    vertex -7.851284296526816 -2.300000000000002 7.9229131573464056
  endloop
endfacet
facet normal -0.00518013256463615 -1.7876581702840032e-15 -0.9999865830232989
  outer loop
    vertex -3.8784662997268353 -2.3 7.902333157346452
    vertex -7.851284296526813 9.69999999999999 7.9229131573464056
    vertex -3.878466299726828 9.700000000000001 7.902333157346406
  endloop
endfacet
endsolid Probe_holder_marmoset_probe
